<?xml version="1.0" encoding="UTF-8"?>
<svg xmlns="http://www.w3.org/2000/svg" xmlns:xlink="http://www.w3.org/1999/xlink" width="298pt" height="84pt" viewBox="0 0 298 84" version="1.1">
<g id="surface1">
<path style=" stroke:none;fill-rule:nonzero;fill:rgb(61.176471%,61.176471%,60.392157%);fill-opacity:1;" d="M 69.664062 14.578125 C 62.355469 12.949219 60.253906 9.707031 59.238281 5.007812 L 58.183594 0.144531 L 16.476562 0.144531 L 15.421875 5.007812 C 14.40625 9.707031 12.308594 12.945312 5 14.574219 L -0.0273438 15.691406 L 0.179688 20.839844 C 0.6875 33.464844 3.726562 45.835938 8.734375 55.679688 C 14.757812 67.519531 23.390625 76.539062 34.402344 82.484375 L 37.332031 84.066406 L 40.257812 82.484375 C 50.917969 76.726562 59.796875 67.3125 65.929688 55.261719 C 71.023438 45.246094 73.980469 33.34375 74.480469 20.84375 L 74.6875 15.695312 Z M 69.664062 14.578125 "/>
<path style=" stroke:none;fill-rule:nonzero;fill:rgb(100%,100%,100%);fill-opacity:1;" d="M 68.992188 17.589844 C 61.496094 15.917969 57.675781 12.351562 56.230469 5.664062 L 55.699219 3.234375 L 18.960938 3.234375 L 18.433594 5.664062 C 16.984375 12.351562 13.164062 15.917969 5.667969 17.589844 L 3.15625 18.148438 L 3.257812 20.722656 C 3.75 32.910156 6.667969 44.832031 11.476562 54.289062 C 17.210938 65.558594 25.417969 74.132812 35.863281 79.777344 L 37.324219 80.566406 L 38.789062 79.777344 C 48.898438 74.316406 57.328125 65.355469 63.175781 53.863281 C 67.996094 44.382812 70.917969 32.613281 71.394531 20.722656 L 71.496094 18.148438 Z M 68.992188 17.589844 "/>
<path style=" stroke:none;fill-rule:nonzero;fill:rgb(44.313725%,43.921569%,43.921569%);fill-opacity:1;" d="M 88.667969 23.589844 L 88.667969 23.519531 C 88.667969 17.960938 92.917969 13.378906 98.871094 13.378906 C 102.542969 13.378906 104.828125 14.613281 106.644531 16.648438 L 103.265625 20.28125 C 102.03125 18.976562 100.796875 18.140625 98.835938 18.140625 C 96.078125 18.140625 94.113281 20.574219 94.113281 23.449219 L 94.113281 23.519531 C 94.113281 26.496094 96.039062 28.898438 99.050781 28.898438 C 100.90625 28.898438 102.171875 28.101562 103.515625 26.828125 L 106.746094 30.097656 C 104.855469 32.171875 102.679688 33.660156 98.792969 33.660156 C 92.957031 33.660156 88.667969 29.15625 88.667969 23.589844 Z M 88.667969 23.589844 "/>
<path style=" stroke:none;fill-rule:nonzero;fill:rgb(44.313725%,43.921569%,43.921569%);fill-opacity:1;" d="M 106.679688 23.589844 L 106.679688 23.519531 C 106.679688 17.921875 111.183594 13.378906 117.246094 13.378906 C 123.277344 13.378906 127.742188 17.847656 127.742188 23.445312 L 127.742188 23.515625 C 127.742188 29.113281 123.242188 33.65625 117.175781 33.65625 C 111.144531 33.660156 106.679688 29.1875 106.679688 23.589844 Z M 122.292969 23.589844 L 122.292969 23.519531 C 122.292969 20.652344 120.222656 18.140625 117.171875 18.140625 C 114.011719 18.140625 112.121094 20.574219 112.121094 23.449219 L 112.121094 23.519531 C 112.121094 26.390625 114.191406 28.898438 117.242188 28.898438 C 120.40625 28.898438 122.292969 26.464844 122.292969 23.589844 Z M 122.292969 23.589844 "/>
<path style=" stroke:none;fill-rule:nonzero;fill:rgb(44.313725%,43.921569%,43.921569%);fill-opacity:1;" d="M 129.558594 13.742188 L 135.082031 13.742188 L 135.082031 16.503906 C 136.355469 14.863281 138.023438 13.378906 140.820312 13.378906 C 143.359375 13.378906 145.285156 14.507812 146.304688 16.46875 C 148.011719 14.46875 150.042969 13.378906 152.695312 13.378906 C 156.800781 13.378906 159.269531 15.851562 159.269531 20.539062 L 159.269531 33.222656 L 153.75 33.222656 L 153.75 22.359375 C 153.75 19.738281 152.589844 18.394531 150.511719 18.394531 C 148.445312 18.394531 147.175781 19.738281 147.175781 22.359375 L 147.175781 33.222656 L 141.652344 33.222656 L 141.652344 22.359375 C 141.652344 19.738281 140.492188 18.394531 138.417969 18.394531 C 136.34375 18.394531 135.074219 19.738281 135.074219 22.359375 L 135.074219 33.222656 L 129.554688 33.222656 L 129.554688 13.742188 Z M 129.558594 13.742188 "/>
<path style=" stroke:none;fill-rule:nonzero;fill:rgb(44.313725%,43.921569%,43.921569%);fill-opacity:1;" d="M 161.878906 13.742188 L 167.398438 13.742188 L 167.398438 16.539062 C 168.742188 14.722656 170.59375 13.378906 173.460938 13.378906 C 178.003906 13.378906 182.320312 16.941406 182.320312 23.445312 L 182.320312 23.515625 C 182.320312 30.023438 178.074219 33.582031 173.460938 33.582031 C 170.519531 33.582031 168.703125 32.234375 167.398438 30.675781 L 167.398438 39.03125 L 161.878906 39.03125 Z M 176.800781 23.519531 L 176.800781 23.449219 C 176.800781 20.214844 174.621094 18.070312 172.042969 18.070312 C 169.464844 18.070312 167.324219 20.210938 167.324219 23.449219 L 167.324219 23.519531 C 167.324219 26.753906 169.464844 28.898438 172.042969 28.898438 C 174.621094 28.898438 176.800781 26.789062 176.800781 23.519531 Z M 176.800781 23.519531 "/>
<path style=" stroke:none;fill-rule:nonzero;fill:rgb(44.313725%,43.921569%,43.921569%);fill-opacity:1;" d="M 184.207031 13.742188 L 189.730469 13.742188 L 189.730469 17.667969 C 190.855469 14.976562 192.671875 13.230469 195.941406 13.378906 L 195.941406 19.160156 L 195.648438 19.160156 C 191.980469 19.160156 189.730469 21.378906 189.730469 26.03125 L 189.730469 33.222656 L 184.207031 33.222656 Z M 184.207031 13.742188 "/>
<path style=" stroke:none;fill-rule:nonzero;fill:rgb(44.313725%,43.921569%,43.921569%);fill-opacity:1;" d="M 195.144531 27.625 L 195.144531 27.554688 C 195.144531 23.304688 198.371094 21.339844 202.984375 21.339844 C 204.945312 21.339844 206.359375 21.664062 207.742188 22.136719 L 207.742188 21.8125 C 207.742188 19.523438 206.328125 18.25 203.5625 18.25 C 201.457031 18.25 199.964844 18.648438 198.1875 19.300781 L 196.808594 15.085938 C 198.953125 14.144531 201.054688 13.523438 204.359375 13.523438 C 207.375 13.523438 209.550781 14.324219 210.933594 15.707031 C 212.386719 17.160156 213.042969 19.304688 213.042969 21.921875 L 213.042969 33.222656 L 207.703125 33.222656 L 207.703125 31.113281 C 206.359375 32.605469 204.507812 33.585938 201.820312 33.585938 C 198.15625 33.585938 195.144531 31.480469 195.144531 27.625 Z M 207.816406 26.355469 L 207.816406 25.375 C 206.875 24.941406 205.640625 24.648438 204.296875 24.648438 C 201.933594 24.648438 200.480469 25.589844 200.480469 27.335938 L 200.480469 27.410156 C 200.480469 28.898438 201.714844 29.773438 203.492188 29.773438 C 206.074219 29.773438 207.816406 28.351562 207.816406 26.355469 Z M 207.816406 26.355469 "/>
<path style=" stroke:none;fill-rule:nonzero;fill:rgb(44.313725%,43.921569%,43.921569%);fill-opacity:1;" d="M 215.621094 13.742188 L 221.140625 13.742188 L 221.140625 16.503906 C 222.414062 14.863281 224.046875 13.378906 226.84375 13.378906 C 231.019531 13.378906 233.453125 16.140625 233.453125 20.613281 L 233.453125 33.222656 L 227.933594 33.222656 L 227.933594 22.359375 C 227.933594 19.738281 226.695312 18.394531 224.589844 18.394531 C 222.480469 18.394531 221.136719 19.738281 221.136719 22.359375 L 221.136719 33.222656 L 215.617188 33.222656 L 215.617188 13.742188 Z M 215.621094 13.742188 "/>
<path style=" stroke:none;fill-rule:nonzero;fill:rgb(44.313725%,43.921569%,43.921569%);fill-opacity:1;" d="M 235.195312 23.519531 L 235.195312 23.449219 C 235.195312 16.941406 239.441406 13.382812 244.054688 13.382812 C 246.996094 13.382812 248.8125 14.726562 250.117188 16.289062 L 250.117188 6.691406 L 255.640625 6.691406 L 255.640625 33.222656 L 250.117188 33.222656 L 250.117188 30.425781 C 248.773438 32.242188 246.921875 33.585938 244.054688 33.585938 C 239.515625 33.585938 235.195312 30.027344 235.195312 23.519531 Z M 250.191406 23.519531 L 250.191406 23.449219 C 250.191406 20.214844 248.050781 18.070312 245.472656 18.070312 C 242.894531 18.070312 240.714844 20.179688 240.714844 23.449219 L 240.714844 23.519531 C 240.714844 26.753906 242.894531 28.898438 245.472656 28.898438 C 248.050781 28.898438 250.191406 26.753906 250.191406 23.519531 Z M 250.191406 23.519531 "/>
<path style=" stroke:none;fill-rule:nonzero;fill:rgb(44.313725%,43.921569%,43.921569%);fill-opacity:1;" d="M 257.453125 23.589844 L 257.453125 23.519531 C 257.453125 17.921875 261.957031 13.378906 268.019531 13.378906 C 274.050781 13.378906 278.515625 17.847656 278.515625 23.445312 L 278.515625 23.515625 C 278.515625 29.113281 274.015625 33.65625 267.949219 33.65625 C 261.925781 33.660156 257.453125 29.1875 257.453125 23.589844 Z M 273.070312 23.589844 L 273.070312 23.519531 C 273.070312 20.652344 271 18.140625 267.949219 18.140625 C 264.789062 18.140625 262.898438 20.574219 262.898438 23.449219 L 262.898438 23.519531 C 262.898438 26.390625 264.96875 28.898438 268.019531 28.898438 C 271.183594 28.898438 273.070312 26.464844 273.070312 23.589844 Z M 273.070312 23.589844 "/>
<path style=" stroke:none;fill-rule:nonzero;fill:rgb(44.313725%,43.921569%,43.921569%);fill-opacity:1;" d="M 88.667969 54.492188 L 88.667969 54.421875 C 88.667969 48.863281 92.628906 44.28125 98.292969 44.28125 C 104.796875 44.28125 107.769531 49.332031 107.769531 54.855469 C 107.769531 55.289062 107.734375 55.796875 107.699219 56.308594 L 94.152344 56.308594 C 94.699219 58.8125 96.441406 60.125 98.910156 60.125 C 100.761719 60.125 102.109375 59.546875 103.628906 58.125 L 106.789062 60.921875 C 104.972656 63.179688 102.355469 64.558594 98.835938 64.558594 C 92.988281 64.5625 88.667969 60.453125 88.667969 54.492188 Z M 102.394531 52.859375 C 102.070312 50.386719 100.617188 48.714844 98.292969 48.714844 C 96.007812 48.714844 94.515625 50.351562 94.082031 52.859375 Z M 102.394531 52.859375 "/>
<path style=" stroke:none;fill-rule:nonzero;fill:rgb(44.313725%,43.921569%,43.921569%);fill-opacity:1;" d="M 109.695312 44.644531 L 115.214844 44.644531 L 115.214844 47.402344 C 116.488281 45.765625 118.121094 44.28125 120.917969 44.28125 C 125.09375 44.28125 127.527344 47.039062 127.527344 51.515625 L 127.527344 64.125 L 122.003906 64.125 L 122.003906 53.253906 C 122.003906 50.636719 120.769531 49.296875 118.664062 49.296875 C 116.554688 49.296875 115.210938 50.640625 115.210938 53.253906 L 115.210938 64.125 L 109.691406 64.125 L 109.691406 44.644531 Z M 109.695312 44.644531 "/>
<path style=" stroke:none;fill-rule:nonzero;fill:rgb(44.313725%,43.921569%,43.921569%);fill-opacity:1;" d="M 138.960938 67.980469 L 140.851562 63.835938 C 142.851562 64.964844 144.847656 65.617188 147.425781 65.617188 C 151.203125 65.617188 152.980469 63.800781 152.980469 60.308594 L 152.980469 59.367188 C 151.34375 61.328125 149.566406 62.527344 146.625 62.527344 C 142.082031 62.527344 137.980469 59.21875 137.980469 53.445312 L 137.980469 53.371094 C 137.980469 47.558594 142.160156 44.289062 146.625 44.289062 C 149.636719 44.289062 151.417969 45.5625 152.902344 47.195312 L 152.902344 44.644531 L 158.425781 44.644531 L 158.425781 59.726562 C 158.425781 63.210938 157.589844 65.761719 155.953125 67.394531 C 154.140625 69.210938 151.34375 70.011719 147.566406 70.011719 C 144.40625 70.011719 141.433594 69.285156 138.960938 67.980469 Z M 152.980469 53.4375 L 152.980469 53.367188 C 152.980469 50.714844 150.910156 48.863281 148.222656 48.863281 C 145.535156 48.863281 143.503906 50.714844 143.503906 53.367188 L 143.503906 53.4375 C 143.503906 56.128906 145.535156 57.945312 148.222656 57.945312 C 150.910156 57.945312 152.980469 56.089844 152.980469 53.4375 Z M 152.980469 53.4375 "/>
<path style=" stroke:none;fill-rule:nonzero;fill:rgb(44.313725%,43.921569%,43.921569%);fill-opacity:1;" d="M 161.183594 44.644531 L 166.707031 44.644531 L 166.707031 48.570312 C 167.832031 45.878906 169.648438 44.132812 172.914062 44.28125 L 172.914062 50.058594 L 172.625 50.058594 C 168.953125 50.058594 166.707031 52.277344 166.707031 56.929688 L 166.707031 64.128906 L 161.183594 64.128906 Z M 161.183594 44.644531 "/>
<path style=" stroke:none;fill-rule:nonzero;fill:rgb(44.313725%,43.921569%,43.921569%);fill-opacity:1;" d="M 174.042969 57.257812 L 174.042969 44.644531 L 179.5625 44.644531 L 179.5625 55.511719 C 179.5625 58.125 180.800781 59.46875 182.90625 59.46875 C 185.015625 59.46875 186.359375 58.125 186.359375 55.511719 L 186.359375 44.644531 L 191.878906 44.644531 L 191.878906 64.125 L 186.359375 64.125 L 186.359375 61.363281 C 185.089844 63 183.453125 64.488281 180.65625 64.488281 C 176.476562 64.488281 174.042969 61.726562 174.042969 57.257812 Z M 174.042969 57.257812 "/>
<path style=" stroke:none;fill-rule:nonzero;fill:rgb(44.313725%,43.921569%,43.921569%);fill-opacity:1;" d="M 194.628906 44.644531 L 200.148438 44.644531 L 200.148438 47.441406 C 201.496094 45.625 203.347656 44.28125 206.214844 44.28125 C 210.753906 44.28125 215.074219 47.84375 215.074219 54.34375 L 215.074219 54.414062 C 215.074219 60.921875 210.824219 64.480469 206.214844 64.480469 C 203.273438 64.480469 201.457031 63.136719 200.148438 61.574219 L 200.148438 69.933594 L 194.628906 69.933594 Z M 209.558594 54.421875 L 209.558594 54.351562 C 209.558594 51.113281 207.378906 48.96875 204.800781 48.96875 C 202.21875 48.96875 200.078125 51.113281 200.078125 54.351562 L 200.078125 54.421875 C 200.078125 57.652344 202.226562 59.800781 204.800781 59.800781 C 207.378906 59.800781 209.558594 57.691406 209.558594 54.421875 Z M 209.558594 54.421875 "/>
<path style=" stroke:none;fill-rule:nonzero;fill:rgb(44.313725%,43.921569%,43.921569%);fill-opacity:1;" d="M 216.015625 54.492188 L 216.015625 54.421875 C 216.015625 48.824219 220.519531 44.28125 226.582031 44.28125 C 232.613281 44.28125 237.078125 48.75 237.078125 54.34375 L 237.078125 54.414062 C 237.078125 60.011719 232.578125 64.558594 226.511719 64.558594 C 220.488281 64.5625 216.015625 60.089844 216.015625 54.492188 Z M 231.632812 54.492188 L 231.632812 54.421875 C 231.632812 51.550781 229.5625 49.039062 226.511719 49.039062 C 223.355469 49.039062 221.46875 51.476562 221.46875 54.351562 L 221.46875 54.421875 C 221.46875 57.289062 223.539062 59.800781 226.589844 59.800781 C 229.746094 59.800781 231.632812 57.367188 231.632812 54.492188 Z M 231.632812 54.492188 "/>
<path style=" stroke:none;fill-rule:nonzero;fill:rgb(44.313725%,43.921569%,43.921569%);fill-opacity:1;" d="M 237.953125 58.308594 L 243.835938 58.308594 L 243.835938 64.125 L 237.953125 64.125 Z M 237.953125 58.308594 "/>
<path style=" stroke:none;fill-rule:nonzero;fill:rgb(18.431373%,67.058824%,43.921569%);fill-opacity:1;" d="M 246.378906 44.644531 L 251.898438 44.644531 L 251.898438 47.402344 C 253.167969 45.765625 254.804688 44.28125 257.601562 44.28125 C 261.777344 44.28125 264.210938 47.039062 264.210938 51.515625 L 264.210938 64.125 L 258.691406 64.125 L 258.691406 53.253906 C 258.691406 50.636719 257.453125 49.296875 255.347656 49.296875 C 253.238281 49.296875 251.894531 50.640625 251.894531 53.253906 L 251.894531 64.125 L 246.375 64.125 L 246.375 44.644531 Z M 246.378906 44.644531 "/>
<path style=" stroke:none;fill-rule:nonzero;fill:rgb(18.431373%,67.058824%,43.921569%);fill-opacity:1;" d="M 265.878906 54.492188 L 265.878906 54.421875 C 265.878906 48.863281 269.835938 44.28125 275.503906 44.28125 C 282.007812 44.28125 284.980469 49.332031 284.980469 54.855469 C 284.980469 55.289062 284.945312 55.796875 284.910156 56.308594 L 271.363281 56.308594 C 271.90625 58.8125 273.652344 60.125 276.121094 60.125 C 277.972656 60.125 279.320312 59.546875 280.839844 58.125 L 284 60.921875 C 282.183594 63.179688 279.566406 64.558594 276.046875 64.558594 C 270.199219 64.5625 265.878906 60.453125 265.878906 54.492188 Z M 279.605469 52.859375 C 279.28125 50.386719 277.828125 48.714844 275.503906 48.714844 C 273.21875 48.714844 271.726562 50.351562 271.289062 52.859375 Z M 279.605469 52.859375 "/>
<path style=" stroke:none;fill-rule:nonzero;fill:rgb(18.431373%,67.058824%,43.921569%);fill-opacity:1;" d="M 287.808594 58.601562 L 287.808594 49.371094 L 285.484375 49.371094 L 285.484375 44.644531 L 287.808594 44.644531 L 287.808594 39.664062 L 293.332031 39.664062 L 293.332031 44.644531 L 297.90625 44.644531 L 297.90625 49.367188 L 293.332031 49.367188 L 293.332031 57.691406 C 293.332031 58.964844 293.875 59.578125 295.109375 59.578125 C 296.128906 59.578125 297.035156 59.324219 297.835938 58.890625 L 297.835938 63.324219 C 296.675781 64.015625 295.332031 64.453125 293.476562 64.453125 C 290.101562 64.453125 287.808594 63.105469 287.808594 58.601562 Z M 287.808594 58.601562 "/>
<path style=" stroke:none;fill-rule:nonzero;fill:rgb(1.176471%,44.705882%,23.921569%);fill-opacity:1;" d="M 37.320312 77.0625 C 27.429688 71.722656 19.664062 63.597656 14.214844 52.886719 C 9.488281 43.589844 6.785156 31.847656 6.328125 20.503906 C 15.445312 18.476562 19.804688 13.683594 21.433594 6.136719 L 53.207031 6.136719 C 54.835938 13.683594 59.195312 18.476562 68.3125 20.507812 C 67.859375 31.855469 65.15625 43.128906 60.429688 52.417969 C 54.980469 63.128906 47.207031 71.722656 37.320312 77.0625 Z M 37.320312 77.0625 "/>
<path style=" stroke:none;fill-rule:nonzero;fill:rgb(3.529412%,42.352941%,21.568627%);fill-opacity:1;" d="M 55.132812 11.539062 C 54.398438 10.449219 53.515625 8.496094 53.21875 6.136719 C 46.738281 6.136719 21.429688 6.136719 21.429688 6.136719 C 19.804688 13.683594 15.445312 18.476562 6.328125 20.507812 C 6.785156 31.855469 9.394531 43.152344 14.117188 52.445312 C 19.566406 63.15625 27.238281 71.292969 37.128906 76.632812 C 37.128906 76.632812 14.472656 26.019531 55.132812 11.539062 Z M 55.132812 11.539062 "/>
<path style=" stroke:none;fill-rule:nonzero;fill:rgb(18.431373%,67.058824%,43.921569%);fill-opacity:1;" d="M 52.898438 6.136719 C 49.664062 6.136719 21.433594 6.136719 21.433594 6.136719 C 19.804688 13.683594 15.445312 18.476562 6.328125 20.507812 C 6.785156 31.855469 9.113281 42.164062 14 52.414062 C 19.171875 63.265625 27.4375 71.597656 37.324219 76.933594 C 37.324219 76.933594 12.234375 21.234375 52.898438 6.136719 Z M 52.898438 6.136719 "/>
<path style=" stroke:none;fill-rule:nonzero;fill:rgb(100%,100%,100%);fill-opacity:1;" d="M 12.210938 36.59375 C 12.210938 30.839844 17.113281 25.78125 23.199219 25.78125 C 26.65625 25.78125 28.976562 27.253906 30.417969 29.625 L 27.144531 31.925781 C 26.089844 30.429688 24.878906 29.445312 22.707031 29.445312 C 19.40625 29.445312 16.339844 32.59375 16.339844 36.441406 C 16.339844 39.046875 18.167969 40.800781 20.746094 40.800781 C 22.5 40.800781 23.632812 40.101562 24.976562 39.023438 L 27.554688 41.707031 C 25.828125 43.308594 23.742188 44.46875 20.722656 44.46875 C 15.796875 44.464844 12.210938 41.417969 12.210938 36.59375 Z M 12.210938 36.59375 "/>
<path style=" stroke:none;fill-rule:nonzero;fill:rgb(100%,100%,100%);fill-opacity:1;" d="M 32.300781 26.09375 L 45.785156 26.09375 L 44.832031 29.625 L 35.289062 29.625 L 34.308594 33.316406 L 42.6875 33.316406 L 41.734375 36.800781 L 33.355469 36.800781 L 32.324219 40.617188 L 42.015625 40.617188 L 41.066406 44.152344 L 27.453125 44.152344 Z M 32.300781 26.09375 "/>
<path style=" stroke:none;fill-rule:nonzero;fill:rgb(100%,100%,100%);fill-opacity:1;" d="M 43.929688 36.621094 C 43.929688 30.996094 48.703125 25.78125 55.199219 25.78125 C 59.015625 25.78125 61.3125 27.253906 62.574219 28.90625 L 59.636719 31.507812 C 58.582031 30.347656 57.164062 29.417969 54.894531 29.417969 C 51.027344 29.417969 48.0625 32.722656 48.0625 36.488281 C 48.0625 39.300781 50.121094 40.824219 52.679688 40.824219 C 54.070312 40.824219 55.101562 40.488281 55.898438 40.125 L 56.746094 37.1875 L 52.75 37.1875 L 53.675781 33.753906 L 61.515625 33.753906 L 58.964844 42.765625 C 57.1875 43.769531 55.121094 44.46875 52.414062 44.46875 C 48.289062 44.464844 43.929688 42.015625 43.929688 36.621094 Z M 43.929688 36.621094 "/>
</g>
</svg>
